<svg id="svg" version="1.1" xmlns="http://www.w3.org/2000/svg" xmlns:xlink="http://www.w3.org/1999/xlink" width="400" height="425.8847320525784" viewBox="0, 0, 400,425.8847320525784"><g id="svgg"><path id="path0" d="M172.043 37.602 C 157.437 52.100,145.377 63.926,145.243 63.881 C 145.109 63.836,144.942 63.980,144.871 64.200 C 144.645 64.905,143.503 65.988,143.191 65.794 C 143.024 65.691,138.332 70.331,132.764 76.104 C 113.866 95.696,54.614 154.813,54.079 154.609 C 53.793 154.499,53.648 154.554,53.757 154.730 C 53.986 155.101,36.544 172.651,36.097 172.500 C 35.933 172.445,35.797 172.535,35.794 172.700 C 35.780 173.360,35.119 173.997,34.711 173.745 C 34.472 173.597,34.387 173.656,34.523 173.875 C 34.658 174.094,34.101 174.887,33.285 175.637 L 31.802 177.000 32.956 175.600 C 33.591 174.830,28.131 180.230,20.824 187.600 C 13.516 194.970,7.021 201.644,6.390 202.430 L 5.243 203.861 25.062 223.630 L 44.881 243.400 52.724 235.200 C 65.101 222.259,132.160 155.652,132.562 155.900 C 132.761 156.023,132.807 155.934,132.664 155.703 C 132.521 155.472,135.307 152.519,138.856 149.141 C 149.858 138.670,159.600 129.047,159.600 128.650 C 159.600 127.512,199.321 88.634,199.630 89.469 C 199.804 89.941,201.084 91.262,202.474 92.406 C 205.936 95.255,283.600 172.378,283.600 172.968 C 283.600 173.465,285.967 175.815,297.894 187.158 C 301.906 190.973,305.073 194.281,304.933 194.509 C 304.792 194.737,304.851 194.816,305.063 194.684 C 305.584 194.363,327.317 216.142,326.915 216.582 C 326.742 216.773,326.780 216.828,327.000 216.705 C 327.220 216.582,333.175 222.178,340.233 229.141 L 353.067 241.800 372.524 222.190 L 391.982 202.580 364.191 174.791 C 348.906 159.507,336.400 146.794,336.400 146.540 C 336.400 146.286,332.575 142.420,327.900 137.948 C 314.645 125.270,305.635 116.309,305.721 115.889 C 305.765 115.679,305.440 115.449,305.000 115.379 C 304.560 115.310,280.839 91.841,252.287 63.226 C 213.776 24.631,200.145 11.206,199.487 11.221 C 198.862 11.236,190.743 19.042,172.043 37.602 M244.256 246.277 C 244.104 246.429,243.590 246.613,243.114 246.686 C 242.638 246.759,242.148 246.919,242.024 247.042 C 241.599 247.467,241.377 414.549,241.800 415.479 C 242.411 416.824,241.277 416.789,284.300 416.795 C 324.270 416.800,324.810 416.790,325.600 416.000 C 326.370 415.230,326.400 414.667,326.400 401.000 C 326.400 385.713,326.329 385.200,324.200 385.200 C 323.870 385.200,323.600 385.017,323.600 384.794 C 323.600 384.523,315.448 384.423,299.006 384.494 L 274.411 384.600 274.306 316.600 C 274.190 242.064,274.373 247.287,271.849 246.407 C 270.537 245.950,244.705 245.828,244.256 246.277 " stroke="none" fill="#fc040c" fill-rule="evenodd"></path><path id="path1" d="M74.522 248.566 C 72.964 249.907,73.077 251.649,75.332 261.000 C 76.340 265.180,79.317 277.690,81.947 288.800 C 84.578 299.910,88.840 317.910,91.418 328.800 C 93.997 339.690,98.138 357.150,100.622 367.600 C 103.105 378.050,105.980 390.200,107.012 394.600 C 108.043 399.000,109.025 402.780,109.193 403.000 C 109.362 403.220,110.081 405.830,110.791 408.800 C 113.285 419.228,111.679 418.400,129.405 418.400 C 145.130 418.400,145.791 418.306,146.909 415.917 C 147.509 414.635,148.915 408.904,158.610 368.200 C 164.397 343.905,170.493 318.343,176.782 292.000 C 179.435 280.890,181.776 271.440,181.985 271.000 C 182.725 269.445,186.501 252.975,186.517 251.237 C 186.530 249.802,186.330 249.299,185.444 248.537 L 184.355 247.600 170.997 247.600 C 153.394 247.600,155.304 246.310,152.229 260.275 C 151.027 265.734,149.017 274.880,147.762 280.600 C 146.508 286.320,145.360 291.090,145.212 291.200 C 145.064 291.310,144.090 295.360,143.048 300.200 C 142.006 305.040,139.193 317.910,136.796 328.800 C 134.400 339.690,131.848 351.338,131.124 354.684 C 130.401 358.031,129.699 360.641,129.566 360.484 C 129.432 360.328,128.848 357.950,128.269 355.200 C 127.283 350.528,125.180 340.788,113.975 289.000 C 111.547 277.780,109.391 268.240,109.183 267.800 C 108.976 267.360,108.171 264.030,107.394 260.400 C 105.392 251.042,105.002 249.841,103.568 248.635 L 102.339 247.600 88.992 247.600 L 75.645 247.600 74.522 248.566 " stroke="none" fill="#bcbcbc" fill-rule="evenodd"></path><path id="path2" d="M188.952 20.007 C 183.865 25.063,179.810 29.200,179.941 29.200 C 180.071 29.200,184.332 25.060,189.409 20.000 C 194.485 14.940,198.540 10.803,198.420 10.807 C 198.299 10.811,194.038 14.951,188.952 20.007 M214.800 25.419 C 214.800 25.758,246.026 56.959,270.025 80.599 C 280.009 90.433,280.553 90.921,273.600 83.804 C 266.274 76.306,224.347 34.376,217.500 27.701 C 216.015 26.253,214.800 25.226,214.800 25.419 M96.853 111.621 C 83.226 125.272,72.218 136.387,72.391 136.321 C 72.857 136.142,113.106 96.246,117.952 91.159 C 127.308 81.337,120.278 88.155,96.853 111.621 M179.302 108.961 C 168.576 119.610,159.890 128.409,160.000 128.514 C 160.110 128.619,169.006 119.906,179.768 109.152 C 190.530 98.399,199.216 89.600,199.070 89.600 C 198.924 89.600,190.028 98.313,179.302 108.961 M258.050 148.108 C 271.827 161.909,283.256 173.200,283.448 173.200 C 283.900 173.200,255.900 145.151,243.000 132.682 C 237.500 127.366,244.272 134.308,258.050 148.108 M336.545 146.700 C 339.101 149.457,392.400 202.515,392.400 202.303 C 392.400 201.932,336.904 146.400,336.534 146.400 C 336.387 146.400,336.392 146.535,336.545 146.700 M83.599 204.273 C 68.167 219.756,64.628 223.438,72.439 215.883 C 82.285 206.360,106.772 181.600,106.343 181.600 C 106.263 181.600,96.028 191.803,83.599 204.273 M373.200 221.559 C 362.970 231.649,354.697 240.007,354.815 240.133 C 354.933 240.259,363.393 232.001,373.614 221.781 C 383.836 211.562,392.110 203.203,392.000 203.207 C 391.890 203.210,383.430 211.469,373.200 221.559 M26.182 225.509 C 35.853 235.222,43.854 243.080,43.962 242.971 C 44.221 242.713,39.553 238.020,22.600 221.496 L 8.600 207.851 26.182 225.509 M341.634 231.047 C 342.165 231.733,342.680 232.223,342.779 232.135 C 342.877 232.047,342.443 231.486,341.813 230.888 L 340.669 229.800 341.634 231.047 M348.588 238.387 C 350.552 240.361,352.248 241.885,352.358 241.775 C 352.620 241.514,345.939 234.800,345.417 234.800 C 345.197 234.800,346.624 236.414,348.588 238.387 M240.800 331.400 C 240.800 377.123,240.889 414.444,240.998 414.335 C 241.261 414.072,241.267 248.733,241.004 248.470 C 240.892 248.358,240.800 285.677,240.800 331.400 M325.200 385.102 C 325.200 385.322,325.470 385.726,325.800 386.000 C 326.135 386.278,326.400 386.321,326.400 386.098 C 326.400 385.878,326.130 385.474,325.800 385.200 C 325.465 384.922,325.200 384.879,325.200 385.102 " stroke="none" fill="#fc747c" fill-rule="evenodd"></path><path id="path3" d="M192.393 17.100 L 187.800 21.800 192.500 17.207 C 195.085 14.680,197.200 12.565,197.200 12.507 C 197.200 12.218,196.660 12.734,192.393 17.100 M180.134 28.693 C 180.275 28.922,180.123 29.332,179.796 29.604 C 179.468 29.876,179.200 29.964,179.200 29.800 C 179.200 29.636,178.932 29.724,178.604 29.996 C 178.277 30.268,178.095 30.630,178.200 30.800 C 178.305 30.970,178.123 31.332,177.796 31.604 C 177.468 31.876,177.200 31.952,177.200 31.774 C 177.200 31.596,176.669 31.960,176.019 32.582 C 175.369 33.204,174.874 33.823,174.919 33.957 C 174.964 34.091,174.820 34.256,174.600 34.324 C 173.891 34.544,172.433 36.093,172.518 36.535 C 172.563 36.771,172.330 36.972,172.000 36.982 C 171.670 36.992,171.392 37.180,171.382 37.400 C 171.373 37.620,165.085 44.010,157.410 51.600 C 149.735 59.190,142.906 66.030,142.234 66.800 C 141.563 67.570,149.650 59.716,160.207 49.346 C 182.359 27.585,181.009 28.976,180.364 28.578 C 180.072 28.397,179.979 28.443,180.134 28.693 M278.800 89.730 C 284.850 95.847,296.460 107.359,304.600 115.312 C 314.409 124.895,316.841 127.146,311.813 121.986 C 304.161 114.134,299.092 109.119,278.872 89.403 L 267.800 78.607 278.800 89.730 M120.400 88.600 C 119.428 89.590,118.723 90.400,118.833 90.400 C 118.943 90.400,119.828 89.590,120.800 88.600 C 121.772 87.610,122.477 86.800,122.367 86.800 C 122.257 86.800,121.372 87.610,120.400 88.600 M190.596 97.300 L 183.800 104.200 190.700 97.404 C 197.110 91.091,197.781 90.400,197.496 90.400 C 197.438 90.400,194.333 93.505,190.596 97.300 M209.600 99.655 C 213.670 103.713,218.620 108.550,220.600 110.404 C 222.580 112.257,220.150 109.673,215.200 104.660 C 210.250 99.648,205.300 94.811,204.200 93.911 C 203.100 93.012,205.530 95.596,209.600 99.655 M166.415 121.385 C 162.577 125.227,159.519 128.422,159.619 128.485 C 159.718 128.548,162.944 125.405,166.788 121.500 C 170.631 117.595,173.689 114.400,173.583 114.400 C 173.478 114.400,170.252 117.543,166.415 121.385 M226.000 116.125 C 226.000 116.194,226.568 116.779,227.262 117.425 C 228.486 118.565,228.495 118.119,227.277 116.700 C 226.755 116.092,226.000 115.752,226.000 116.125 M82.422 126.578 C 76.828 132.175,72.077 136.647,71.864 136.516 C 71.651 136.384,71.590 136.460,71.729 136.685 C 71.868 136.909,71.625 137.415,71.191 137.809 C 70.756 138.202,70.400 138.384,70.400 138.213 C 70.400 138.042,70.132 138.124,69.804 138.396 C 69.477 138.668,69.295 139.030,69.400 139.200 C 69.674 139.643,68.591 140.452,68.199 140.097 C 68.019 139.933,68.009 140.037,68.176 140.327 C 68.374 140.669,68.215 140.923,67.722 141.052 C 67.168 141.197,34.590 173.732,32.136 176.591 C 31.951 176.806,41.880 167.053,54.200 154.918 C 78.429 131.052,93.110 116.400,92.793 116.400 C 92.684 116.400,88.017 120.980,82.422 126.578 M229.600 119.325 C 229.600 119.394,230.185 119.979,230.900 120.625 L 232.200 121.800 231.025 120.500 C 229.930 119.288,229.600 119.016,229.600 119.325 M233.820 123.515 C 234.029 123.689,238.610 128.139,244.000 133.404 L 253.800 142.978 244.003 133.089 C 238.615 127.650,234.034 123.200,233.823 123.200 C 233.582 123.200,233.580 123.317,233.820 123.515 M126.094 161.711 C 117.022 170.792,109.600 178.376,109.600 178.563 C 109.600 178.751,114.874 173.616,121.321 167.152 C 134.720 153.718,143.043 145.200,142.773 145.200 C 142.671 145.200,135.165 152.630,126.094 161.711 M337.600 148.200 C 338.346 148.970,339.047 149.600,339.157 149.600 C 339.267 149.600,338.746 148.970,338.000 148.200 C 337.254 147.430,336.553 146.800,336.443 146.800 C 336.333 146.800,336.854 147.430,337.600 148.200 M269.000 158.400 C 273.396 162.800,277.082 166.400,277.192 166.400 C 277.302 166.400,273.796 162.800,269.400 158.400 C 265.004 154.000,261.318 150.400,261.208 150.400 C 261.098 150.400,264.604 154.000,269.000 158.400 M369.600 180.200 C 381.809 192.410,391.887 202.400,391.997 202.400 C 392.107 202.400,382.209 192.410,370.000 180.200 C 357.791 167.990,347.713 158.000,347.603 158.000 C 347.493 158.000,357.391 167.990,369.600 180.200 M277.600 166.910 C 277.600 166.971,278.995 168.366,280.700 170.010 L 283.800 173.000 280.810 169.900 C 278.033 167.021,277.600 166.617,277.600 166.910 M301.209 190.700 C 307.114 196.823,326.591 216.245,328.971 218.382 C 330.307 219.582,324.021 213.147,315.002 204.082 C 305.983 195.017,298.517 187.600,298.412 187.600 C 298.306 187.600,299.565 188.995,301.209 190.700 M78.998 208.500 L 60.600 227.000 79.100 208.602 C 96.295 191.501,97.780 190.000,97.498 190.000 C 97.442 190.000,89.117 198.325,78.998 208.500 M11.400 210.400 C 14.915 213.920,17.881 216.800,17.991 216.800 C 18.101 216.800,15.315 213.920,11.800 210.400 C 8.285 206.880,5.319 204.000,5.209 204.000 C 5.099 204.000,7.885 206.880,11.400 210.400 M342.724 231.723 C 343.877 232.891,344.726 233.971,344.610 234.123 C 344.495 234.275,344.526 234.304,344.680 234.187 C 344.834 234.070,346.769 235.734,348.980 237.886 C 351.191 240.037,350.302 239.053,347.005 235.699 C 343.708 232.344,340.924 229.600,340.819 229.600 C 340.713 229.600,341.571 230.555,342.724 231.723 M273.462 247.600 C 273.716 247.930,274.006 248.650,274.107 249.200 L 274.291 250.200 274.346 249.149 C 274.376 248.570,274.086 247.852,273.700 247.549 C 273.091 247.071,273.060 247.078,273.462 247.600 M241.396 331.600 C 241.396 376.810,241.443 395.305,241.500 372.700 C 241.557 350.095,241.557 313.105,241.500 290.500 C 241.443 267.895,241.396 286.390,241.396 331.600 M274.595 317.600 C 274.595 354.670,274.642 369.835,274.700 351.300 C 274.757 332.765,274.757 302.435,274.700 283.900 C 274.642 265.365,274.595 280.530,274.595 317.600 M326.579 401.000 C 326.579 408.260,326.633 411.286,326.699 407.725 C 326.765 404.164,326.766 398.224,326.699 394.525 C 326.633 390.826,326.579 393.740,326.579 401.000 M264.300 417.100 C 275.135 417.159,292.865 417.159,303.700 417.100 C 314.535 417.041,305.670 416.992,284.000 416.992 C 262.330 416.992,253.465 417.041,264.300 417.100 " stroke="none" fill="#fc5357" fill-rule="evenodd"></path><path id="path4" d="M176.400 32.451 C 172.346 36.747,172.373 36.833,176.512 32.809 C 178.430 30.944,180.000 29.369,180.000 29.309 C 180.000 28.827,178.971 29.726,176.400 32.451 M171.021 37.929 L 169.843 39.400 171.321 38.022 C 172.849 36.597,173.010 36.380,172.500 36.429 C 172.335 36.445,171.670 37.120,171.021 37.929 M242.800 53.800 C 246.425 57.430,249.481 60.400,249.591 60.400 C 249.701 60.400,246.825 57.430,243.200 53.800 C 239.575 50.170,236.519 47.200,236.409 47.200 C 236.299 47.200,239.175 50.170,242.800 53.800 M263.000 74.000 C 264.528 75.540,265.869 76.800,265.979 76.800 C 266.089 76.800,264.928 75.540,263.400 74.000 C 261.872 72.460,260.531 71.200,260.421 71.200 C 260.311 71.200,261.472 72.460,263.000 74.000 M196.000 92.200 C 194.361 93.850,193.110 95.200,193.220 95.200 C 193.330 95.200,194.761 93.850,196.400 92.200 C 198.039 90.550,199.290 89.200,199.180 89.200 C 199.070 89.200,197.639 90.550,196.000 92.200 M115.775 93.300 L 114.600 94.600 115.900 93.425 C 117.112 92.330,117.384 92.000,117.075 92.000 C 117.006 92.000,116.421 92.585,115.775 93.300 M285.400 96.000 C 287.592 98.200,289.475 100.000,289.585 100.000 C 289.695 100.000,287.992 98.200,285.800 96.000 C 283.608 93.800,281.725 92.000,281.615 92.000 C 281.505 92.000,283.208 93.800,285.400 96.000 M94.400 114.600 C 93.428 115.590,92.723 116.400,92.833 116.400 C 92.943 116.400,93.828 115.590,94.800 114.600 C 95.772 113.610,96.477 112.800,96.367 112.800 C 96.257 112.800,95.372 113.610,94.400 114.600 M224.000 113.725 C 224.000 113.794,224.585 114.379,225.300 115.025 L 226.600 116.200 225.425 114.900 C 224.330 113.688,224.000 113.416,224.000 113.725 M231.183 121.304 C 232.164 122.347,233.143 123.200,233.359 123.200 C 233.574 123.200,233.312 122.811,232.775 122.335 C 229.975 119.850,229.568 119.587,231.183 121.304 M239.200 129.000 C 241.281 131.090,243.074 132.800,243.184 132.800 C 243.294 132.800,241.681 131.090,239.600 129.000 C 237.519 126.910,235.726 125.200,235.616 125.200 C 235.506 125.200,237.119 126.910,239.200 129.000 M69.628 138.802 C 68.213 140.121,67.229 141.200,67.440 141.200 C 67.652 141.200,68.894 140.120,70.200 138.800 C 73.254 135.714,72.939 135.715,69.628 138.802 M340.400 151.000 C 341.146 151.770,341.847 152.400,341.957 152.400 C 342.067 152.400,341.546 151.770,340.800 151.000 C 340.054 150.230,339.353 149.600,339.243 149.600 C 339.133 149.600,339.654 150.230,340.400 151.000 M345.200 155.800 C 346.395 157.010,347.463 158.000,347.573 158.000 C 347.683 158.000,346.795 157.010,345.600 155.800 C 344.405 154.590,343.337 153.600,343.227 153.600 C 343.117 153.600,344.005 154.590,345.200 155.800 M107.983 179.880 L 106.200 181.761 107.860 180.380 C 109.246 179.228,110.283 178.000,109.871 178.000 C 109.813 178.000,108.964 178.846,107.983 179.880 M390.175 204.500 L 389.000 205.800 390.300 204.625 C 391.015 203.979,391.600 203.394,391.600 203.325 C 391.600 203.016,391.270 203.288,390.175 204.500 M5.200 204.525 C 5.200 204.594,5.785 205.179,6.500 205.825 L 7.800 207.000 6.625 205.700 C 5.530 204.488,5.200 204.216,5.200 204.525 M380.391 214.300 L 377.000 217.800 380.500 214.409 C 383.751 211.259,384.182 210.800,383.891 210.800 C 383.831 210.800,382.256 212.375,380.391 214.300 M20.200 219.200 C 21.506 220.520,22.665 221.600,22.775 221.600 C 22.885 221.600,21.906 220.520,20.600 219.200 C 19.294 217.880,18.135 216.800,18.025 216.800 C 17.915 216.800,18.894 217.880,20.200 219.200 M335.800 225.200 C 338.433 227.840,340.677 230.000,340.787 230.000 C 340.897 230.000,338.833 227.840,336.200 225.200 C 333.567 222.560,331.323 220.400,331.213 220.400 C 331.103 220.400,333.167 222.560,335.800 225.200 M342.800 232.255 C 342.800 232.727,345.184 234.950,345.428 234.706 C 345.516 234.617,344.961 233.937,344.194 233.194 C 343.427 232.451,342.800 232.029,342.800 232.255 " stroke="none" fill="#fc6c74" fill-rule="evenodd"></path></g></svg>